# xmcd
#
# Track frame offsets:
#	150
#	15162
#	31187
#	49270
#	71250
#	83047
#	102480
#	120995
#	133992
#	150090
#	159452
#	184735
#	197872
#	216902
#
# Disc length: 2947 seconds
#
# Revision: 0
# Processed by: cddbd v1.4PL0 Copyright (c) Steve Scherf et al.
# Submitted via: dBpowerAMP V4.0
#
DISCID=ae0b810e
DTITLE=Charles Travaux - Charles Travaux Blues
DYEAR=1900
DGENRE=Blues
TTITLE0=schuif es op 
TTITLE1=mijne website
TTITLE2=germaine grier
TTITLE3=hou van mij
TTITLE4=ik ben zo heet
TTITLE5=moeder maak meer koffie
TTITLE6=de blues
TTITLE7=op den dop is't nie goe
TTITLE8=god,geld en geslachtsdelen
TTITLE9=lijk elvis presley
TTITLE10=papa goes classic
TTITLE11=de sheriff van massemen
TTITLE12=viva de schoon maskens
TTITLE13=my babe
EXTD=
EXTT0=
EXTT1=
EXTT2=
EXTT3=
EXTT4=
EXTT5=
EXTT6=
EXTT7=
EXTT8=
EXTT9=
EXTT10=
EXTT11=
EXTT12=
EXTT13=
PLAYORDER=
